<?xml version="1.0" encoding="UTF-8"?>
<svg id="Layer_2" data-name="Layer 2" xmlns="http://www.w3.org/2000/svg" viewBox="0 0 1374.32 943.51">
  <defs>
    <style>
      .cls-1 {
        fill: #f1b716;
      }
    </style>
  </defs>
  <g id="Layer_1-2" data-name="Layer 1">
    <g>
      <path d="M780.42,943.51c-30.3,0-56.78-19.64-65.77-48.25-9.52,4.81-20.15,7.46-31.06,7.46-4.76,0-9.53-.5-14.19-1.48l-290.08-60.96c-36.84-7.74-60.7-43.81-53.53-80.66l-154.9,44.61c-6.22,1.79-12.65,2.7-19.1,2.7-30.78,0-58.08-20.7-66.4-50.34L2.6,461.78c-9.16-32.62,6.46-66.73,37.14-81.11l114.51-53.67L186.68,60.65C190.89,26.07,220.31,0,255.13,0c2.73,0,5.48.16,8.2.49l245.15,29.23c27.73,3.31,50.57,22.8,58.19,49.66l26.67,93.96,117.98-15,35.02-100.5c9.65-27.68,35.82-46.29,65.13-46.29,2.57,0,5.16.15,7.72.43l112.77,12.67c15.45,1.74,30.02,8.74,41.03,19.73,11.01,10.99,18.04,25.54,19.81,40.99l1.87,16.39,29.62,23.3,156.17-15.43c2.26-.22,4.55-.34,6.81-.34,17.31,0,33.87,6.46,46.64,18.18,12.87,11.82,20.72,27.92,22.1,45.34l16.86,212.53h32.49c19.11,0,37.54,8.03,50.54,22.04,13.01,14.01,19.66,32.97,18.25,52.03l-18.86,255.02c-1.29,17.47-9.09,33.65-21.95,45.55-12.79,11.83-29.42,18.35-46.82,18.35-1.64,0-3.3-.06-4.93-.18l-143.4-10.22,6.28,17.03c6.9,18.71,5.36,39.48-4.21,56.98-9.58,17.5-26.24,29.98-45.72,34.26l-299.29,65.69c-4.86,1.07-9.84,1.61-14.81,1.61Z"/>
      <path class="cls-1" d="M555.32,201.68l-31.28-110.2c-2.72-9.58-10.93-16.58-20.81-17.76l-245.15-29.23c-13.51-1.61-25.77,8.01-27.41,21.52l-33.75,277.14c-1.03,8.44-6.32,15.75-14.02,19.36l-124.35,58.29c-10.93,5.12-16.54,17.39-13.28,29.01l82.77,294.81c3.7,13.18,17.43,20.83,30.58,17.04l186.16-53.62c17.85-5.14,34.76,10.54,30.99,28.72l-6.43,31.01c-2.76,13.32,5.77,26.36,19.08,29.16l290.08,60.96c10.25,2.15,20.74-2.39,26.17-11.35h0c11.37-18.74,39.7-14.45,45.03,6.81l6.81,27.18c3.24,12.94,16.19,20.97,29.22,18.1l299.29-65.69c14.62-3.21,23.04-18.59,17.86-32.63l-16.8-45.57c-6.2-16.81,7.03-34.42,24.9-33.14l173.74,12.39c13.57.97,25.36-9.23,26.36-22.79l18.86-255.02c1.06-14.3-10.26-26.49-24.61-26.49h-50.63c-12.87,0-23.58-9.89-24.6-22.72l-18.3-230.61c-1.09-13.77-13.28-23.96-27.02-22.6l-164.03,16.21c-6.34.63-12.67-1.22-17.68-5.16l-42.27-33.25c-5.18-4.07-8.51-10.05-9.26-16.59l-2.8-24.53c-1.31-11.43-10.33-20.43-21.76-21.72l-112.77-12.67c-11.45-1.29-22.26,5.52-26.05,16.4l-39.02,111.98c-3.08,8.84-10.9,15.18-20.19,16.36l-146.8,18.66c-12.1,1.54-23.52-6-26.85-17.74Z"/>
      <g>
        <path d="M268.47,381.58h0c-21.46-2.36-36.95-21.68-34.59-43.14l25.08-227.95c2.36-21.46,21.68-36.95,43.14-34.59l86.03,9.46c100,11,155.38,78.09,145.19,170.66-10.23,93.01-78.87,146.45-178.87,135.45l-86.03-9.46.05-.44ZM303.2,290.82c-2.36,21.46,13.12,40.78,34.59,43.14l22.71,2.5c62.45,6.87,100.54-26.06,107.32-87.64,6.82-62.01-23.69-102.05-86.57-108.97l-21.83-2.4c-21.46-2.36-40.78,13.12-43.14,34.59l-13.07,118.78Z"/>
        <path d="M706.07,264.34h0c1.85-.31,3.11-2.06,2.8-3.91l-1.9-11.45c-2.34-14.14,7.22-27.51,21.36-29.85l8.98-1.49c14.14-2.34,27.51,7.22,29.85,21.36l27.14,163.74c2.34,14.14-7.22,27.51-21.36,29.85l-8.98,1.49c-14.14,2.34-27.51-7.22-29.85-21.36l-2.16-13.03c-.28-1.69-1.88-2.84-3.57-2.56h0c-1.24.21-2.24,1.13-2.52,2.36-6.54,29.51-28.5,50.04-66.76,56.39-55.46,9.19-110.66-22.74-122.56-94.53-11.9-71.79,30.05-119.83,85.51-129.02,37.76-6.26,64.65,5.69,80.62,30.52.73,1.13,2.07,1.71,3.4,1.49ZM717.53,331.34c-5.77-34.82-34.34-55.27-69.59-49.42s-56.12,34.48-50.35,69.3,34.34,55.26,70.02,49.35c35.25-5.84,55.69-34.41,49.92-69.23Z"/>
        <path d="M661.09,565.73h0c2.38.3,4.55-1.38,4.85-3.75l1.87-14.69c2.31-18.13,18.88-30.96,37.01-28.66l11.51,1.46c18.13,2.31,30.96,18.88,28.66,37.01l-26.72,209.97c-2.31,18.13-18.88,30.96-37.01,28.66l-11.51-1.46c-18.13-2.31-30.96-18.88-28.66-37.01l2.13-16.71c.28-2.17-1.26-4.15-3.43-4.43h0c-1.59-.2-3.16.57-3.94,1.96-18.78,33.66-53.12,50.72-102.18,44.48-71.11-9.05-126.88-68.24-115.17-160.31,11.71-92.06,80.53-135.41,151.65-126.36,48.42,6.16,76.91,30.59,87.34,66.76.48,1.65,1.9,2.85,3.61,3.07ZM650.59,651.79c5.68-44.65-21.74-80.07-66.95-85.83-45.76-5.82-81.18,21.6-86.86,66.26-5.68,44.65,21.74,80.07,67.5,85.89,45.2,5.75,80.63-21.67,86.31-66.33Z"/>
        <path d="M845.64,82.75l57.89,4c8.11.56,14.22,7.58,13.66,15.69l-1.79,25.85c-.56,8.11,5.56,15.13,13.66,15.69l29.26,2.02c8.11.56,14.22,7.58,13.66,15.69l-3.31,47.87c-.56,8.11-7.58,14.22-15.69,13.66l-29.26-2.02c-8.11-.56-15.13,5.56-15.69,13.66l-8.74,126.4c-1.62,23.51,12.33,37.53,41.45,38.93h0c8.11.56,14.22,7.58,13.66,15.69l-2.87,41.54c-.47,6.81-5.56,12.39-12.3,13.5-8.95,1.48-11.94,2.32-24,1.49-72.39-5-108.19-44.78-103.45-113.46l8.95-129.5c.56-8.11-5.56-15.13-13.66-15.69l-15.82-1.09c-8.11-.56-14.22-7.58-13.66-15.69l3.35-48.48c.56-8.11,7.58-14.22,15.69-13.66l15.82,1.09c8.11.56,15.13-5.56,15.69-13.66l1.79-25.85c.56-8.11,7.58-14.22,15.69-13.66Z"/>
        <path d="M1120.61,367.49c16.24-3.09,31.55-9.55,44.82-20.32,6.95-5.64,17-5.29,23.58.78l15.95,14.69c7.86,7.24,7.76,19.68-.22,26.8-19.51,17.44-49.18,30.81-80.87,36.84-81.23,15.47-144.99-22.89-159.37-98.39-14.11-74.06,28.24-135.11,107.56-150.22,69.28-13.2,119.28,17.88,131.84,83.82l3.99,20.94c1.87,9.81-4.57,19.27-14.38,21.14l-124.07,23.63c-16.79,3.2-20.27,25.93-5.07,33.75,15.51,7.97,34.93,10.58,56.23,6.52ZM1081.28,233.85c-14.06,2.68-25.96,8.5-34.86,16.7-13.37,12.29-2.17,34.43,15.67,31.03l53.11-10.12c16.94-3.23,20.3-26.33,4.8-33.88-10.48-5.11-23.81-6.56-38.72-3.72Z"/>
        <path d="M184.81,709.61h0c-21.46,2.4-40.8-13.05-43.21-34.51l-25.51-227.9c-2.4-21.46,13.05-40.8,34.51-43.21l86.01-9.63c99.98-11.19,168.72,42.12,179.08,134.68,10.41,92.99-44.84,160.18-144.82,171.37l-86.01,9.63-.05-.44ZM198.81,613.45c2.4,21.46,21.75,36.91,43.21,34.51l22.7-2.54c62.43-6.99,92.38-47.47,85.49-109.03-6.94-62-45.48-94.37-108.35-87.34l-21.83,2.44c-21.46,2.4-36.91,21.75-34.51,43.21l13.29,118.75Z"/>
        <path d="M964.04,698.27l-.27-15.49c-.04-2.51-2.11-4.51-4.62-4.47h0c-1.45.02-2.79.75-3.64,1.93-21.6,30.26-53.52,45.99-92.79,46.67-64.34,1.11-101.42-38.87-102.59-106.9l-2.09-121.82c-.32-18.35,14.3-33.48,32.65-33.79l7.38-.13c18.35-.32,33.48,14.3,33.79,32.65l1.88,109.16c.63,36.91,23.13,56.57,62.68,55.89,39.55-.68,66.63-21.19,66.05-54.94l-1.93-112.32c-.32-18.35,14.3-33.48,32.65-33.79l7.38-.13c18.35-.32,33.48,14.3,33.79,32.65l3.35,195.12c1.72,100.2-41.31,143.66-138.34,145.33l-99.14,1.7c-18.35.32-33.48-14.3-33.79-32.65h0c-.32-18.35,14.3-33.48,32.65-33.79l100.72-1.73c46.41-.8,65.08-19.05,64.22-69.15Z"/>
        <path d="M1066.07,647.66l117.92-94.52c10.7-8.58,5.42-25.82-8.25-26.93l-35.35-2.87c-8.34-.68-15.66,5.54-16.33,13.88h0c-.68,8.34-7.99,14.56-16.33,13.88l-20.58-1.67c-8.34-.68-14.56-7.99-13.88-16.33l3.77-46.41c.68-8.34,7.99-14.56,16.33-13.88l190.47,15.49c8.34.68,14.56,7.99,13.88,16.33l-1.38,16.94c-.34,4.14-2.36,7.96-5.59,10.57l-117.29,94.61c-10.66,8.6-5.36,25.79,8.29,26.9l34.64,2.82c8.34.68,15.66-5.54,16.33-13.88l.28-3.5c.68-8.34,7.99-14.56,16.33-13.88l20.14,1.64c8.34.68,14.56,7.99,13.88,16.33l-4.06,49.92c-.68,8.34-7.99,14.56-16.33,13.88l-190.03-15.45c-8.34-.68-14.56-7.99-13.88-16.33l1.38-16.91c.34-4.16,2.37-7.99,5.63-10.6Z"/>
      </g>
    </g>
  </g>
</svg>