<?xml version="1.0" encoding="UTF-8"?>
<svg id="Layer_2" data-name="Layer 2" xmlns="http://www.w3.org/2000/svg" viewBox="0 0 2959.8 653.4">
  <defs>
    <style>
      .cls-1 {
        fill: #f1e8d8;
      }
    </style>
  </defs>
  <g id="Layer_1-2" data-name="Layer 1">
    <g>
      <path class="cls-1" d="M47.54,417.56h0c-29.3-3.22-50.44-29.59-47.21-58.88L34.55,47.54C37.78,18.24,64.14-2.9,93.44.32l117.42,12.92c136.49,15.02,212.08,106.58,198.18,232.94-13.97,126.96-107.65,199.9-244.15,184.88l-117.42-12.92.07-.6ZM94.95,293.67c-3.22,29.3,17.91,55.66,47.21,58.88l30.99,3.41c85.23,9.38,137.23-35.58,146.48-119.62,9.31-84.64-32.33-139.29-118.16-148.73l-29.8-3.28c-29.3-3.22-55.66,17.91-58.88,47.21l-17.84,162.12Z"/>
      <path class="cls-1" d="M644.84,257.53h0c2.53-.42,4.24-2.81,3.82-5.34l-2.59-15.63c-3.2-19.3,9.85-37.54,29.16-40.74l12.25-2.03c19.3-3.2,37.54,9.85,40.74,29.16l37.05,223.5c3.2,19.3-9.85,37.54-29.16,40.74l-12.25,2.03c-19.3,3.2-37.54-9.85-40.74-29.16l-2.95-17.79c-.38-2.31-2.56-3.87-4.87-3.49h0c-1.69.28-3.06,1.55-3.43,3.22-8.92,40.28-38.9,68.31-91.12,76.96-75.7,12.55-151.05-31.03-167.29-129.03-16.24-97.99,41.02-163.56,116.72-176.1,51.54-8.54,88.25,7.77,110.04,41.65.99,1.55,2.82,2.34,4.64,2.04ZM660.48,348.99c-7.88-47.53-46.87-75.43-94.99-67.46-48.7,8.07-76.61,47.06-68.73,94.59,7.88,47.53,46.87,75.43,95.57,67.36,48.12-7.98,76.02-46.97,68.14-94.5Z"/>
      <path class="cls-1" d="M2107.81,292.26h0c3.18.4,6.08-1.84,6.49-5.02l2.5-19.65c3.09-24.27,25.26-41.43,49.53-38.35l15.4,1.96c24.27,3.09,41.43,25.26,38.35,49.53l-35.75,280.97c-3.09,24.27-25.26,41.43-49.53,38.35l-15.4-1.96c-24.27-3.09-41.43-25.26-38.35-49.53l2.85-22.36c.37-2.9-1.68-5.56-4.59-5.92h0c-2.13-.27-4.22.76-5.27,2.63-25.13,45.04-71.08,67.87-136.73,59.52-95.16-12.11-169.79-91.32-154.12-214.51,15.68-123.2,107.76-181.19,202.93-169.09,64.79,8.24,102.91,40.94,116.87,89.34.64,2.21,2.54,3.82,4.83,4.11ZM2093.76,407.42c7.6-59.75-29.1-107.15-89.59-114.85-61.23-7.79-108.63,28.91-116.23,88.66-7.6,59.75,29.1,107.15,90.32,114.94,60.49,7.7,107.89-29,115.49-88.75Z"/>
      <path class="cls-1" d="M835.35,9.67l79.02,5.46c11.06.76,19.41,10.35,18.65,21.42l-2.44,35.28c-.76,11.06,7.58,20.65,18.65,21.42l39.94,2.76c11.06.76,19.41,10.35,18.65,21.42l-4.51,65.33c-.76,11.06-10.35,19.41-21.42,18.65l-39.94-2.76c-11.06-.76-20.65,7.58-21.42,18.65l-11.92,172.53c-2.22,32.09,16.83,51.23,56.58,53.13h0c11.06.76,19.41,10.35,18.65,21.42l-3.92,56.7c-.64,9.29-7.59,16.91-16.78,18.43-12.21,2.02-16.29,3.17-32.76,2.03-98.81-6.83-147.68-61.12-141.2-154.87l12.21-176.76c.76-11.06-7.58-20.65-18.65-21.42l-21.59-1.49c-11.06-.76-19.41-10.35-18.65-21.42l4.57-66.18c.76-11.06,10.35-19.41,21.42-18.65l21.59,1.49c11.06.76,20.65-7.58,21.42-18.65l2.44-35.28c.76-11.06,10.35-19.41,21.42-18.65Z"/>
      <path class="cls-1" d="M1210.66,398.32c22.17-4.22,43.06-13.04,61.18-27.73,9.49-7.69,23.2-7.22,32.19,1.06l21.78,20.05c10.73,9.89,10.59,26.86-.29,36.58-26.63,23.8-67.13,42.05-110.38,50.29-110.88,21.12-197.9-31.24-217.53-134.29-19.26-101.09,38.54-184.42,146.81-205.05,94.57-18.01,162.81,24.41,179.95,114.42l5.45,28.59c2.55,13.39-6.24,26.31-19.62,28.86l-169.35,32.26c-22.92,4.37-27.67,35.39-6.92,46.06,21.17,10.88,47.67,14.44,76.75,8.9ZM1156.99,215.92c-19.19,3.66-35.43,11.61-47.59,22.79-18.25,16.78-2.96,46.99,21.39,42.35l72.49-13.81c23.12-4.4,27.7-35.93,6.55-46.25-14.31-6.98-32.5-8.96-52.85-5.08Z"/>
      <path class="cls-1" d="M1470.48,484.8h0c-28.72,3.21-54.6-17.46-57.82-46.18l-34.13-304.97c-3.21-28.72,17.46-54.6,46.18-57.82l115.09-12.88c133.79-14.97,225.77,56.37,239.63,180.22,13.93,124.44-60.01,214.35-193.8,229.32l-115.09,12.88-.07-.58ZM1489.2,356.11c3.21,28.72,29.1,49.39,57.82,46.18l30.38-3.4c83.54-9.35,123.62-63.53,114.4-145.9-9.28-82.96-60.87-126.29-144.99-116.87l-29.21,3.27c-28.72,3.21-49.39,29.1-46.18,57.82l17.78,158.91Z"/>
      <path class="cls-1" d="M2513.21,469.62l-.36-20.73c-.06-3.36-2.83-6.04-6.19-5.98h0c-1.94.03-3.74,1.01-4.87,2.59-28.91,40.49-71.62,61.55-124.17,62.45-86.09,1.48-135.72-52.02-137.28-143.05l-2.8-163.01c-.42-24.55,19.14-44.8,43.69-45.22l9.88-.17c24.55-.42,44.8,19.14,45.22,43.69l2.51,146.07c.85,49.4,30.95,75.7,83.87,74.79,52.92-.91,89.16-28.36,88.38-73.52l-2.58-150.31c-.42-24.55,19.14-44.8,43.69-45.22l9.88-.17c24.55-.42,44.8,19.14,45.22,43.69l4.49,261.1c2.3,134.08-55.28,192.24-185.13,194.47l-132.67,2.28c-24.55.42-44.8-19.14-45.22-43.69h0c-.42-24.55,19.14-44.8,43.69-45.22l134.78-2.32c62.1-1.07,87.09-25.5,85.94-92.54Z"/>
      <path class="cls-1" d="M2649.74,401.89l157.8-126.49c14.32-11.48,7.25-34.55-11.04-36.04l-47.3-3.85c-11.16-.91-20.95,7.41-21.86,18.57h0c-.91,11.16-10.69,19.48-21.86,18.57l-27.54-2.24c-11.16-.91-19.48-10.69-18.57-21.86l5.05-62.11c.91-11.16,10.69-19.48,21.86-18.57l254.88,20.72c11.16.91,19.48,10.69,18.57,21.86l-1.84,22.67c-.45,5.54-3.15,10.65-7.48,14.14l-156.95,126.61c-14.26,11.5-7.17,34.52,11.09,36l46.35,3.77c11.16.91,20.95-7.41,21.86-18.57l.38-4.69c.91-11.16,10.69-19.48,21.86-18.57l26.95,2.19c11.16.91,19.48,10.69,18.57,21.86l-5.43,66.8c-.91,11.16-10.69,19.48-21.86,18.57l-254.3-20.68c-11.16-.91-19.48-10.69-18.57-21.86l1.84-22.63c.45-5.56,3.18-10.69,7.53-14.18Z"/>
    </g>
  </g>
</svg>